<mxfile host="Electron" modified="2025-05-30T20:47:14.520Z" agent="Mozilla/5.0 (Windows NT 10.0; Win64; x64) AppleWebKit/537.36 (KHTML, like Gecko) draw.io/22.1.2 Chrome/114.0.5735.289 Electron/25.9.4 Safari/537.36" etag="ivNfEkWrYPCk1GOeZmqa" version="22.1.2" type="device">
  <diagram name="Страница — 1" id="00R3lIN3bO4PS_L97c3q">
    <mxGraphModel dx="1594" dy="796" grid="1" gridSize="10" guides="1" tooltips="1" connect="1" arrows="1" fold="1" page="1" pageScale="1" pageWidth="827" pageHeight="1169" math="0" shadow="0">
      <root>
        <mxCell id="0" />
        <mxCell id="1" parent="0" />
        <mxCell id="8vSoMtomyJ-KpTdp_CqP-35" value="" style="ellipse;html=1;shape=startState;fillColor=#000000;strokeColor=#ff0000;" vertex="1" parent="1">
          <mxGeometry x="405" y="130" width="30" height="30" as="geometry" />
        </mxCell>
        <mxCell id="8vSoMtomyJ-KpTdp_CqP-36" value="" style="edgeStyle=orthogonalEdgeStyle;html=1;verticalAlign=bottom;endArrow=open;endSize=8;strokeColor=#ff0000;rounded=0;entryX=0.5;entryY=0;entryDx=0;entryDy=0;" edge="1" source="8vSoMtomyJ-KpTdp_CqP-35" parent="1" target="8vSoMtomyJ-KpTdp_CqP-37">
          <mxGeometry relative="1" as="geometry">
            <mxPoint x="420" y="220" as="targetPoint" />
          </mxGeometry>
        </mxCell>
        <mxCell id="8vSoMtomyJ-KpTdp_CqP-44" style="edgeStyle=orthogonalEdgeStyle;rounded=0;orthogonalLoop=1;jettySize=auto;html=1;exitX=0.5;exitY=1;exitDx=0;exitDy=0;entryX=0.5;entryY=0;entryDx=0;entryDy=0;" edge="1" parent="1" source="8vSoMtomyJ-KpTdp_CqP-37" target="8vSoMtomyJ-KpTdp_CqP-38">
          <mxGeometry relative="1" as="geometry" />
        </mxCell>
        <mxCell id="8vSoMtomyJ-KpTdp_CqP-37" value="Ввод логина и пароля&amp;nbsp;" style="ellipse;whiteSpace=wrap;html=1;" vertex="1" parent="1">
          <mxGeometry x="360" y="240" width="120" height="80" as="geometry" />
        </mxCell>
        <mxCell id="8vSoMtomyJ-KpTdp_CqP-45" style="edgeStyle=orthogonalEdgeStyle;rounded=0;orthogonalLoop=1;jettySize=auto;html=1;exitX=0.5;exitY=1;exitDx=0;exitDy=0;entryX=0.5;entryY=0;entryDx=0;entryDy=0;" edge="1" parent="1" source="8vSoMtomyJ-KpTdp_CqP-38" target="8vSoMtomyJ-KpTdp_CqP-39">
          <mxGeometry relative="1" as="geometry" />
        </mxCell>
        <mxCell id="8vSoMtomyJ-KpTdp_CqP-38" value="Проверка данных" style="ellipse;whiteSpace=wrap;html=1;" vertex="1" parent="1">
          <mxGeometry x="360" y="370" width="120" height="80" as="geometry" />
        </mxCell>
        <mxCell id="8vSoMtomyJ-KpTdp_CqP-39" value="" style="rhombus;whiteSpace=wrap;html=1;fontColor=#000000;fillColor=#ffffc0;strokeColor=#ff0000;" vertex="1" parent="1">
          <mxGeometry x="380" y="490" width="80" height="40" as="geometry" />
        </mxCell>
        <mxCell id="8vSoMtomyJ-KpTdp_CqP-40" value="Ошибка" style="edgeStyle=orthogonalEdgeStyle;html=1;align=left;verticalAlign=bottom;endArrow=open;endSize=8;strokeColor=#ff0000;rounded=0;entryX=1;entryY=0.5;entryDx=0;entryDy=0;" edge="1" source="8vSoMtomyJ-KpTdp_CqP-39" parent="1" target="8vSoMtomyJ-KpTdp_CqP-37">
          <mxGeometry x="-1" relative="1" as="geometry">
            <mxPoint x="565" y="510" as="targetPoint" />
            <Array as="points">
              <mxPoint x="535" y="510" />
              <mxPoint x="535" y="280" />
            </Array>
          </mxGeometry>
        </mxCell>
        <mxCell id="8vSoMtomyJ-KpTdp_CqP-41" value="Успешно" style="edgeStyle=orthogonalEdgeStyle;html=1;align=left;verticalAlign=top;endArrow=open;endSize=8;strokeColor=#ff0000;rounded=0;entryX=0.5;entryY=0;entryDx=0;entryDy=0;" edge="1" source="8vSoMtomyJ-KpTdp_CqP-39" parent="1" target="8vSoMtomyJ-KpTdp_CqP-42">
          <mxGeometry x="-1" relative="1" as="geometry">
            <mxPoint x="420" y="610" as="targetPoint" />
          </mxGeometry>
        </mxCell>
        <mxCell id="8vSoMtomyJ-KpTdp_CqP-47" style="edgeStyle=orthogonalEdgeStyle;rounded=0;orthogonalLoop=1;jettySize=auto;html=1;exitX=0.5;exitY=1;exitDx=0;exitDy=0;entryX=0.5;entryY=0;entryDx=0;entryDy=0;" edge="1" parent="1" source="8vSoMtomyJ-KpTdp_CqP-42" target="8vSoMtomyJ-KpTdp_CqP-46">
          <mxGeometry relative="1" as="geometry" />
        </mxCell>
        <mxCell id="8vSoMtomyJ-KpTdp_CqP-42" value="Вхрд в систему" style="ellipse;whiteSpace=wrap;html=1;" vertex="1" parent="1">
          <mxGeometry x="350" y="640" width="140" height="70" as="geometry" />
        </mxCell>
        <mxCell id="8vSoMtomyJ-KpTdp_CqP-46" value="" style="ellipse;html=1;shape=endState;fillColor=#000000;strokeColor=#ff0000;" vertex="1" parent="1">
          <mxGeometry x="405" y="750" width="30" height="30" as="geometry" />
        </mxCell>
      </root>
    </mxGraphModel>
  </diagram>
</mxfile>
